<?xml version="1.0" encoding="UTF-8" standalone="no"?>
<!DOCTYPE svg PUBLIC "-//W3C//DTD SVG 1.1//EN" "http://www.w3.org/Graphics/SVG/1.1/DTD/svg11.dtd">
<svg width="100%" height="100%" viewBox="0 0 328 242" version="1.1" xmlns="http://www.w3.org/2000/svg" xmlns:xlink="http://www.w3.org/1999/xlink" xml:space="preserve" xmlns:serif="http://www.serif.com/" style="fill-rule:evenodd;clip-rule:evenodd;stroke-linejoin:round;stroke-miterlimit:2;">
    <g transform="matrix(1,0,0,1,-142.644,-124.075)">
        <path d="M278.419,144.075L315.24,144.075C320.759,144.075 325.24,139.594 325.24,134.075C325.24,128.556 320.759,124.075 315.24,124.075L278.419,124.075C272.899,124.075 268.419,128.556 268.419,134.075C268.419,139.594 272.899,144.075 278.419,144.075Z" style="fill:rgb(0,113,188);"/>
        <g transform="matrix(0.444343,0,0,1,76.441,36.6013)">
            <path d="M278.419,144.075L315.24,144.075C327.661,144.075 337.745,139.594 337.745,134.075C337.745,128.556 327.661,124.075 315.24,124.075L278.419,124.075C265.998,124.075 255.913,128.556 255.913,134.075C255.913,139.594 265.998,144.075 278.419,144.075Z" style="fill:rgb(155,203,88);"/>
        </g>
        <g transform="matrix(0.829733,0,0,1,177.299,36.6013)">
            <path d="M278.419,144.075L315.24,144.075C321.891,144.075 327.292,139.594 327.292,134.075C327.292,128.556 321.891,124.075 315.24,124.075L278.419,124.075C271.767,124.075 266.367,128.556 266.367,134.075C266.367,139.594 271.767,144.075 278.419,144.075Z" style="fill:rgb(155,203,88);"/>
        </g>
        <g transform="matrix(1.75259,0,0,1,-237.62,73.4223)">
            <path d="M278.419,144.075L315.24,144.075C318.389,144.075 320.945,139.594 320.945,134.075C320.945,128.556 318.389,124.075 315.24,124.075L278.419,124.075C275.269,124.075 272.713,128.556 272.713,134.075C272.713,139.594 275.269,144.075 278.419,144.075Z" style="fill:rgb(170,108,253);"/>
        </g>
        <g transform="matrix(1.95543,0,0,1,-301.468,36.6013)">
            <path d="M278.419,144.075L315.24,144.075C318.062,144.075 320.354,139.594 320.354,134.075C320.354,128.556 318.062,124.075 315.24,124.075L278.419,124.075C275.596,124.075 273.305,128.556 273.305,134.075C273.305,139.594 275.596,144.075 278.419,144.075Z" style="fill:rgb(155,203,88);"/>
        </g>
        <g transform="matrix(5.24815,0,0,1,-1260.63,110.351)">
            <path d="M278.419,144.075L315.24,144.075C316.291,144.075 317.145,139.594 317.145,134.075C317.145,128.556 316.291,124.075 315.24,124.075L278.419,124.075C277.367,124.075 276.513,128.556 276.513,134.075C276.513,139.594 277.367,144.075 278.419,144.075Z" style="fill:rgb(255,203,91);"/>
        </g>
        <g transform="matrix(2.42007,0,0,1,-448.771,147.759)">
            <path d="M278.419,144.075L315.24,144.075C317.52,144.075 319.372,139.594 319.372,134.075C319.372,128.556 317.52,124.075 315.24,124.075L278.419,124.075C276.138,124.075 274.286,128.556 274.286,134.075C274.286,139.594 276.138,144.075 278.419,144.075Z" style="fill:rgb(241,98,118);"/>
        </g>
        <g transform="matrix(0.697941,0,0,1,24.4182,184.498)">
            <path d="M278.419,144.075L315.24,144.075C323.147,144.075 329.567,139.594 329.567,134.075C329.567,128.556 323.147,124.075 315.24,124.075L278.419,124.075C270.511,124.075 264.091,128.556 264.091,134.075C264.091,139.594 270.511,144.075 278.419,144.075Z" style="fill:rgb(41,171,226);"/>
        </g>
        <g transform="matrix(1.16207,0,0,1,-51.3204,184.498)">
            <path d="M278.419,144.075L315.24,144.075C319.989,144.075 323.845,139.594 323.845,134.075C323.845,128.556 319.989,124.075 315.24,124.075L278.419,124.075C273.669,124.075 269.813,128.556 269.813,134.075C269.813,139.594 273.669,144.075 278.419,144.075Z" style="fill:rgb(41,171,226);"/>
        </g>
        <g transform="matrix(1.67904,0,0,1,-92.9801,184.498)">
            <path d="M278.419,144.075L315.24,144.075C318.527,144.075 321.195,139.594 321.195,134.075C321.195,128.556 318.527,124.075 315.24,124.075L278.419,124.075C275.131,124.075 272.463,128.556 272.463,134.075C272.463,139.594 275.131,144.075 278.419,144.075Z" style="fill:rgb(41,171,226);"/>
        </g>
        <g transform="matrix(0.654503,0,0,1,108.351,221.287)">
            <path d="M278.419,144.075L315.24,144.075C323.672,144.075 330.518,139.594 330.518,134.075C330.518,128.556 323.672,124.075 315.24,124.075L278.419,124.075C269.986,124.075 263.14,128.556 263.14,134.075C263.14,139.594 269.986,144.075 278.419,144.075Z" style="fill:rgb(0,182,164);"/>
        </g>
        <g transform="matrix(0.0516198,0,0,1,246.781,221.287)">
            <path d="M278.419,144.075L315.24,144.075C422.159,144.075 508.964,139.594 508.964,134.075C508.964,128.556 422.159,124.075 315.24,124.075L278.419,124.075C171.499,124.075 84.695,128.556 84.695,134.075C84.695,139.594 171.499,144.075 278.419,144.075Z" style="fill:rgb(0,182,164);"/>
        </g>
        <g transform="matrix(0.848409,0,0,1,188.459,221.287)">
            <path d="M278.419,144.075L315.24,144.075C321.745,144.075 327.026,139.594 327.026,134.075C327.026,128.556 321.745,124.075 315.24,124.075L278.419,124.075C271.913,124.075 266.632,128.556 266.632,134.075C266.632,139.594 271.913,144.075 278.419,144.075Z" style="fill:rgb(0,182,164);"/>
        </g>
        <g transform="matrix(0.122788,0,0,1,357.784,221.287)">
            <path d="M278.419,144.075L315.24,144.075C360.188,144.075 396.681,139.594 396.681,134.075C396.681,128.556 360.188,124.075 315.24,124.075L278.419,124.075C233.47,124.075 196.977,128.556 196.977,134.075C196.977,139.594 233.47,144.075 278.419,144.075Z" style="fill:rgb(0,182,164);"/>
        </g>
        <g transform="matrix(0.488781,0,0,1,218.369,147.759)">
            <path d="M278.419,144.075L315.24,144.075C326.531,144.075 335.699,139.594 335.699,134.075C335.699,128.556 326.531,124.075 315.24,124.075L278.419,124.075C267.127,124.075 257.96,128.556 257.96,134.075C257.96,139.594 267.127,144.075 278.419,144.075Z" style="fill:rgb(241,98,118);"/>
        </g>
        <g transform="matrix(0.206129,0,0,1,344.339,147.759)">
            <path d="M278.419,144.075L315.24,144.075C342.015,144.075 363.753,139.594 363.753,134.075C363.753,128.556 342.015,124.075 315.24,124.075L278.419,124.075C251.643,124.075 229.905,128.556 229.905,134.075C229.905,139.594 251.643,144.075 278.419,144.075Z" style="fill:rgb(241,98,118);"/>
        </g>
        <g transform="matrix(0.312957,0,0,1,65.5108,110.351)">
            <path d="M278.419,144.075L315.24,144.075C332.875,144.075 347.193,139.594 347.193,134.075C347.193,128.556 332.875,124.075 315.24,124.075L278.419,124.075C260.783,124.075 246.465,128.556 246.465,134.075C246.465,139.594 260.783,144.075 278.419,144.075Z" style="fill:rgb(255,203,91);"/>
        </g>
        <g transform="matrix(0.114724,0,0,1,343.928,36.6013)">
            <path d="M278.419,144.075L315.24,144.075C363.348,144.075 402.405,139.594 402.405,134.075C402.405,128.556 363.348,124.075 315.24,124.075L278.419,124.075C230.311,124.075 191.253,128.556 191.253,134.075C191.253,139.594 230.311,144.075 278.419,144.075Z" style="fill:rgb(155,203,88);"/>
        </g>
        <g transform="matrix(0.114724,0,0,1,368.802,73.8632)">
            <path d="M278.419,144.075L315.24,144.075C363.348,144.075 402.405,139.594 402.405,134.075C402.405,128.556 363.348,124.075 315.24,124.075L278.419,124.075C230.311,124.075 191.253,128.556 191.253,134.075C191.253,139.594 230.311,144.075 278.419,144.075Z" style="fill:rgb(170,108,253);"/>
        </g>
        <g transform="matrix(0.541854,0,0,1,202.362,73.8632)">
            <path d="M278.419,144.075L315.24,144.075C325.425,144.075 333.695,139.594 333.695,134.075C333.695,128.556 325.425,124.075 315.24,124.075L278.419,124.075C268.233,124.075 259.963,128.556 259.963,134.075C259.963,139.594 268.233,144.075 278.419,144.075Z" style="fill:rgb(170,108,253);"/>
        </g>
        <g transform="matrix(1.6834,0,0,1,-70.4803,0)">
            <path d="M278.419,144.075L315.24,144.075C318.518,144.075 321.18,139.594 321.18,134.075C321.18,128.556 318.518,124.075 315.24,124.075L278.419,124.075C275.14,124.075 272.478,128.556 272.478,134.075C272.478,139.594 275.14,144.075 278.419,144.075Z" style="fill:rgb(0,113,188);"/>
        </g>
    </g>
</svg>
