<?xml version="1.0" encoding="UTF-8" standalone="no"?>
<!DOCTYPE svg PUBLIC "-//W3C//DTD SVG 1.1//EN" "http://www.w3.org/Graphics/SVG/1.1/DTD/svg11.dtd">
<svg width="100%" height="100%" viewBox="0 0 242 242" version="1.1" xmlns="http://www.w3.org/2000/svg" xmlns:xlink="http://www.w3.org/1999/xlink" xml:space="preserve" xmlns:serif="http://www.serif.com/" style="fill-rule:evenodd;clip-rule:evenodd;stroke-linejoin:round;stroke-miterlimit:2;">
    <g transform="matrix(1,0,0,1,0,23)">
        <path d="M167.5,34.3C171.7,32.7 175.8,30.9 179.9,29.1C181,28.6 182.1,27.8 181.7,26.3C181.3,24.8 180.3,23.9 178.7,23.9C177.6,23.9 176.4,24.1 175.3,24.5C173.2,25.2 173.1,26.4 174.9,28C174.1,28.3 173.6,28.6 173,28.8C161.5,33.6 149.7,37.3 137.8,40.8C121.9,45.4 105.9,49.8 90.1,54.9C65.8,62.7 42.4,73 19.2,83.6C15,85.5 10.8,87.5 6.5,89.5C5.7,89.9 5,90.4 5.5,91.4C6.2,92.3 7,92.6 8,92.1C8.4,91.9 8.8,91.7 9.2,91.6C19.6,86.9 30,82 40.4,77.4C67,65.8 94.2,55.6 122.2,48.1C137.5,44.1 152.8,40.1 167.5,34.3Z" style="fill:rgb(241,91,116);fill-rule:nonzero;"/>
        <path d="M130.5,76.4C130.3,76.4 129.8,77.7 130,78.2C130.2,78.8 131,79.2 131.6,79.6C131.9,79.8 132.4,79.6 132.7,79.6C132.8,79.7 132.9,79.8 133,80C133.8,79.4 134.7,79 135.4,78.3C135.5,78.2 135.1,76.9 134.8,76.9C133.3,76.6 131.9,76.4 130.5,76.4Z" style="fill:rgb(241,91,116);fill-rule:nonzero;"/>
        <path d="M111.4,59.4C111.9,58.4 112.1,57.5 110.9,56.8C109.7,56.2 109.1,57 108.6,57.9C108.5,58 108.5,58.2 108.4,58.4C104.4,65.9 100.3,73.3 96.5,80.9C90.5,93 84.8,105.3 79,117.5C78.2,119.1 77.9,121 77.2,123.1C77.8,123.6 78.3,124.4 78.9,124.6C79.3,124.7 80.3,124 80.5,123.4C81.9,119.9 82.7,116.2 84.4,112.8C92,97.3 99.8,82 107.5,66.6C108.8,64.1 110.1,61.8 111.4,59.4Z" style="fill:rgb(241,91,116);fill-rule:nonzero;"/>
        <path d="M237.1,86.6C236.9,84.7 235.6,83.9 233.9,84.8C232.7,85.5 231.4,86.3 230.5,87.4C227.2,91.1 224,94.9 220.9,98.7C220,99.8 219.4,99.7 218.4,99.1C216.5,97.8 215.8,96 216,93.8C216.3,90 218.2,86.7 220.3,83.7C221,82.7 222.2,81.6 220.8,80.4C219.4,79.2 218.6,80.8 217.8,81.6C214.1,85.4 210.6,89.3 206.8,92.9C204.2,95.3 201.3,97.4 198.4,99.3C196.7,100.4 195.5,99.6 195.8,97.6C196,96 196.6,94.4 197.3,92.9C202,83 208,74 214.4,65.1C215,64.3 215.6,63.4 214.6,62.5C213.7,61.6 212.9,62.1 212.1,62.7C208.1,65.5 204.1,68.4 200.2,71.2C199.8,71.5 199.3,71.7 198.9,72C199,71.2 199.3,70.6 199.7,70C201.5,67 203.4,63.9 205.1,60.8C205.4,60.3 205.4,59.3 205.1,58.9C204.9,58.5 203.9,58.3 203.4,58.4C202.9,58.5 202.5,59.2 202.2,59.7C199.1,64.9 196,70.2 192.9,75.5C192.5,76.2 192.1,76.9 191.4,77.3C185.6,81 179.9,84.9 173.9,88.3C170.5,90.3 166.6,91.4 163,93C161.6,93.6 160,93.9 159.4,95.6C157.2,95.3 155.2,96 153.7,97.4C151.4,99.4 149.1,101.6 147,103.8C145.4,105.5 144,107.3 142.2,109.4C143,107.4 143.8,105.8 144.2,104.2C144.4,103.4 144.1,102.1 143.6,101.7C142.9,101.2 141.7,101.2 140.9,101.5C139.9,101.9 138.9,102.8 138.2,103.7C135.7,106.8 133.3,109.9 130.9,113C130.5,113.5 130.2,113.9 129.8,114.4C131.6,110.9 133.8,107.7 135.7,104.3C137.2,101.6 138.6,98.8 139.8,96C140,95.5 139.8,94.3 139.4,94.1C138.9,93.8 138,94 137.3,94.3C136.7,94.5 136.3,95.1 135.8,95.6C131.8,100.3 127.8,105.1 123.8,109.9C119.1,115.4 114.5,120.8 108.6,125C108,125.5 107.2,125.8 106.1,126.4C106.2,125 106.2,124.2 106.5,123.4C107.1,121.6 107.7,119.7 108.7,118C113.6,109.2 118.9,100.7 125.7,93.2C126.5,92.3 126.8,91.5 125.9,90.6C124.9,89.7 124.1,90.3 123.4,91.1C116.2,99.2 110.4,108.4 105,117.8C103.6,120.2 102.8,122.8 103,125.6C103.2,128.7 104.9,129.9 107.7,128.6C109.7,127.7 111.7,126.5 113.3,125C117.9,120.6 122.3,116 126.8,111.4C127.9,110.3 128.9,109 129.9,107.8C129.5,109 128.8,110 128.3,111C126.5,114.8 124.6,118.6 122.9,122.4C122.6,123.1 122.8,124.4 123.3,124.9C124.2,125.8 125.1,125 125.8,124.2C127.8,121.9 129.8,119.7 131.7,117.4C134.1,114.4 136.4,111.2 138.8,108.1C139,108.2 139.1,108.3 139.3,108.4C138.1,110.7 136.8,112.9 135.7,115.2C135.1,116.5 134.5,117.8 134.2,119.2C134.1,119.8 134.6,120.9 135.1,121.3C135.5,121.6 136.6,121.3 137.1,120.9C138.3,119.8 139.4,118.6 140.4,117.4C143.6,113.4 146.5,109.2 149.9,105.4C152.1,103 155,101.1 157.6,99.1C158,98.8 158.9,98.7 159.1,98.9C159.4,99.3 159.6,100.1 159.4,100.5C159.1,101.5 158.6,102.5 158,103.3C155.7,106.2 153.3,109.1 150.8,111.8C147.9,114.9 145,117.9 144.3,122.4C143.9,125.2 145,126.8 147.8,126.2C149.8,125.8 152,125.1 153.6,123.9C160.8,118.5 166,111.4 169.5,103.1C170.7,100.2 171.1,97.3 169.3,94.7C175.8,90.9 182.2,87.2 188.7,83.4C188.5,83.9 188.3,84.3 188.1,84.6C184.1,92 180.1,99.3 176.1,106.7C174.8,109 173.6,111.4 172.4,113.8C171.9,114.8 171.8,115.6 172.9,116.2C174,116.8 174.7,116.2 175.1,115.3C175.3,114.9 175.5,114.5 175.7,114.1C181.3,103.7 187,93.2 192.6,82.7C194,80.1 195.7,78.1 198.1,76.5C201.1,74.6 203.9,72.4 206.7,70.4C206.6,71.1 206.3,71.6 206,72.1C202.4,78.1 198.8,84.1 195.3,90.1C193.8,92.6 192.7,95.4 192.7,98.4C192.8,101.7 195,103.5 198.2,102.8C199.2,102.6 200.3,102.2 201.1,101.6C204.2,99.3 207.2,96.8 210.2,94.4C211,93.7 211.7,92.9 212.8,91.8C212.5,96.7 214.3,100 218.2,102.1C217.8,102.7 217.5,103.1 217.2,103.6C209.5,114.2 202.2,125 195.6,136.4C189.4,147.2 183,157.8 175,167.4C171.3,171.9 167.3,176.2 162.3,179.3C158.8,181.5 155,182.7 150.7,182.2C149,182 148.6,181.5 148.9,179.8C149,179.3 149.1,178.8 149.3,178.4C156,161.1 165.3,145.5 177.8,131.8C182.1,127.1 186.7,122.8 192.9,120.6C193.7,120.3 194.6,119.8 195.1,119.1C195.6,118.4 196.2,117.2 196,116.5C195.7,115.7 194.6,114.8 193.8,114.7C192.4,114.6 190.9,114.9 189.6,115.3C187.3,116.1 187.1,116.8 188.5,118.9C181.9,122.7 176.7,128.1 171.8,133.8C162.7,144.6 155.7,156.6 149.4,169.2C147.8,172.4 146.7,176 145.9,179.5C145.1,183.2 146.9,185.3 150.7,185.2C153.6,185.1 156.6,184.7 159.3,183.7C165.6,181.4 170.4,176.9 174.8,172C182.2,163.7 188.4,154.6 193.9,145C201.8,131 210.6,117.6 220.1,104.7C220.9,103.7 221.6,103 223,103.1C225.2,103.3 227.2,102.4 228.8,100.9C232.3,97.7 234.9,93.9 236.7,89.5C237.1,88.9 237.2,87.7 237.1,86.6ZM166.8,99.3C166.7,100.1 166.5,100.8 166.2,101.5C162.5,109.1 157.7,115.9 150.9,121.2C149.9,121.9 148.9,123 147.4,122.7C147.8,120.3 148.4,119.1 149.9,117.5C149.6,117.8 149.9,117.5 149.7,117.7C151.7,115.6 156.5,110.4 162.2,104.1C163.2,103 164,101.8 164.8,100.6C165.3,99.8 166.3,98.9 165.3,98C164.7,97.5 163.6,97.6 162.8,97.4C162.8,97.5 162.7,97.7 162.7,97.8C162.5,97.3 162.3,96.9 162,96C163.3,95.9 164.6,95.5 165.7,95.9C167,96.3 167,97.9 166.8,99.3ZM225.3,100.1C225.2,100 225,99.9 224.9,99.7C227.7,96.3 230.5,93 233.3,89.6C233.5,89.7 233.6,89.9 233.8,90C231.9,94.3 229.8,98.2 225.3,100.1Z" style="fill:rgb(241,91,116);fill-rule:nonzero;"/>
    </g>
</svg>
